<svg id="图层_1" data-name="图层 1" xmlns="http://www.w3.org/2000/svg" viewBox="0 0 170 150"><defs><style>.cls-1{fill:#484949;}.cls-2{fill:#fff;}.cls-3{fill:#e5e6e6;}.cls-4{fill:#d1d873;}.cls-5{fill:#d9dada;}</style></defs><polygon class="cls-1" points="22 10 23 10 24 10 25 10 26 10 27 10 28 10 29 10 30 10 30 11 30 12 30 13 30 14 30 15 30 16 30 17 30 18 30 19 30 20 31 20 32 20 33 20 34 20 35 20 36 20 37 20 38 20 39 20 40 20 40 19 40 18 40 17 40 16 40 15 40 14 40 13 40 12 40 11 40 10 40 9 40 8 40 7 40 6 40 5 40 4 40 3 40 2 40 1 40 0 39 0 38 0 37 0 36 0 35 0 34 0 33 0 32 0 31 0 30 0 29 0 28 0 27 0 26 0 25 0 24 0 23 0 22 0 21 0 20 0 20 1 20 2 20 3 20 4 20 5 20 6 20 7 20 8 20 9 20 10 21 10 22 10"/><polygon class="cls-1" points="82 10 83 10 84 10 85 10 86 10 87 10 88 10 89 10 90 10 90 11 90 12 90 13 90 14 90 15 90 16 90 17 90 18 90 19 90 20 90 21 90 22 90 23 90 24 90 25 90 26 90 27 90 28 90 29 90 30 90 31 90 32 90 33 90 34 90 35 90 36 90 37 90 38 90 39 90 40 91 40 92 40 93 40 94 40 95 40 96 40 97 40 98 40 99 40 100 40 100 39 100 38 100 37 100 36 100 35 100 34 100 33 100 32 100 31 100 30 100 29 100 28 100 27 100 26 100 25 100 24 100 23 100 22 100 21 100 20 100 19 100 18 100 17 100 16 100 15 100 14 100 13 100 12 100 11 100 10 100 9 100 8 100 7 100 6 100 5 100 4 100 3 100 2 100 1 100 0 99 0 98 0 97 0 96 0 95 0 94 0 93 0 92 0 91 0 90 0 89 0 88 0 87 0 86 0 85 0 84 0 83 0 82 0 81 0 80 0 80 1 80 2 80 3 80 4 80 5 80 6 80 7 80 8 80 9 80 10 81 10 82 10"/><polygon class="cls-2" points="20 12 20 13 20 14 20 15 20 16 20 17 20 18 20 19 20 20 21 20 22 20 23 20 24 20 25 20 26 20 27 20 28 20 29 20 30 20 30 19 30 18 30 17 30 16 30 15 30 14 30 13 30 12 30 11 30 10 29 10 28 10 27 10 26 10 25 10 24 10 23 10 22 10 21 10 20 10 20 11 20 12"/><polygon class="cls-2" points="80 12 80 13 80 14 80 15 80 16 80 17 80 18 80 19 80 20 81 20 82 20 83 20 84 20 85 20 86 20 87 20 88 20 89 20 90 20 90 19 90 18 90 17 90 16 90 15 90 14 90 13 90 12 90 11 90 10 89 10 88 10 87 10 86 10 85 10 84 10 83 10 82 10 81 10 80 10 80 11 80 12"/><polygon class="cls-1" points="72 20 73 20 74 20 75 20 76 20 77 20 78 20 79 20 80 20 80 19 80 18 80 17 80 16 80 15 80 14 80 13 80 12 80 11 80 10 79 10 78 10 77 10 76 10 75 10 74 10 73 10 72 10 71 10 70 10 70 11 70 12 70 13 70 14 70 15 70 16 70 17 70 18 70 19 70 20 71 20 72 20"/><path class="cls-2" d="M58,50H50V60H40v50H50v10H60v20H70v30H80V150H90V140h20v10H90v20h50V150H120V130H110V120H100V110h10V100h10V70H110V60H100V50H90V60H60V50H58ZM50,99V80H60v20H50Zm40,1H80V80H90v20Z" transform="translate(-20 -30)"/><polygon class="cls-1" points="40 22 40 23 40 24 40 25 40 26 40 27 40 28 40 29 40 30 41 30 42 30 43 30 44 30 45 30 46 30 47 30 48 30 49 30 50 30 51 30 52 30 53 30 54 30 55 30 56 30 57 30 58 30 59 30 60 30 61 30 62 30 63 30 64 30 65 30 66 30 67 30 68 30 69 30 70 30 70 29 70 28 70 27 70 26 70 25 70 24 70 23 70 22 70 21 70 20 69 20 68 20 67 20 66 20 65 20 64 20 63 20 62 20 61 20 60 20 59 20 58 20 57 20 56 20 55 20 54 20 53 20 52 20 51 20 50 20 49 20 48 20 47 20 46 20 45 20 44 20 43 20 42 20 41 20 40 20 40 21 40 22"/><polygon class="cls-3" points="90 28 90 27 90 26 90 25 90 24 90 23 90 22 90 21 90 20 89 20 88 20 87 20 86 20 85 20 84 20 83 20 82 20 81 20 80 20 80 21 80 22 80 23 80 24 80 25 80 26 80 27 80 28 80 29 80 30 81 30 82 30 83 30 84 30 85 30 86 30 87 30 88 30 89 30 90 30 90 29 90 28"/><polygon class="cls-3" points="22 30 23 30 24 30 25 30 26 30 27 30 28 30 29 30 30 30 30 29 30 28 30 27 30 26 30 25 30 24 30 23 30 22 30 21 30 20 29 20 28 20 27 20 26 20 25 20 24 20 23 20 22 20 21 20 20 20 20 21 20 22 20 23 20 24 20 25 20 26 20 27 20 28 20 29 20 30 21 30 22 30"/><polygon class="cls-1" points="142 30 143 30 144 30 145 30 146 30 147 30 148 30 149 30 150 30 151 30 152 30 153 30 154 30 155 30 156 30 157 30 158 30 159 30 160 30 160 29 160 28 160 27 160 26 160 25 160 24 160 23 160 22 160 21 160 20 159 20 158 20 157 20 156 20 155 20 154 20 153 20 152 20 151 20 150 20 149 20 148 20 147 20 146 20 145 20 144 20 143 20 142 20 141 20 140 20 140 21 140 22 140 23 140 24 140 25 140 26 140 27 140 28 140 29 140 30 141 30 142 30"/><polygon class="cls-1" points="169 30 168 30 167 30 166 30 165 30 164 30 163 30 162 30 161 30 160 30 160 31 160 32 160 33 160 34 160 35 160 36 160 37 160 38 160 39 160 40 159 40 158 40 157 40 156 40 155 40 154 40 153 40 152 40 151 40 150 40 150 41 150 42 150 43 150 44 150 45 150 46 150 47 150 48 150 49 150 50 150 51 150 52 150 53 150 54 150 55 150 56 150 57 150 58 150 59 150 60 151 60 152 60 153 60 154 60 155 60 156 60 157 60 158 60 159 60 160 60 160 59 160 58 160 57 160 56 160 55 160 54 160 53 160 52 160 51 160 50 161 50 162 50 163 50 164 50 165 50 166 50 167 50 168 50 169 50 170 50 170 49 170 48 170 47 170 46 170 45 170 44 170 43 170 42 170 41 170 40 170 39 170 38 170 37 170 36 170 35 170 34 170 33 170 32 170 31 170 30 169 30"/><polygon class="cls-1" points="12 40 13 40 14 40 15 40 16 40 17 40 18 40 19 40 20 40 20 39 20 38 20 37 20 36 20 35 20 34 20 33 20 32 20 31 20 30 20 29 20 28 20 27 20 26 20 25 20 24 20 23 20 22 20 21 20 20 20 19 20 18 20 17 20 16 20 15 20 14 20 13 20 12 20 11 20 10 19 10 18 10 17 10 16 10 15 10 14 10 13 10 12 10 11 10 10 10 10 11 10 12 10 13 10 14 10 15 10 16 10 17 10 18 10 19 10 20 10 21 10 22 10 23 10 24 10 25 10 26 10 27 10 28 10 29 10 30 10 31 10 32 10 33 10 34 10 35 10 36 10 37 10 38 10 39 10 40 11 40 12 40"/><polygon class="cls-1" points="100 42 100 43 100 44 100 45 100 46 100 47 100 48 100 49 100 50 100 51 100 52 100 53 100 54 100 55 100 56 100 57 100 58 100 59 100 60 100 61 100 62 100 63 100 64 100 65 100 66 100 67 100 68 100 69 100 70 101 70 102 70 103 70 104 70 105 70 106 70 107 70 108 70 109 70 110 70 110 69 110 68 110 67 110 66 110 65 110 64 110 63 110 62 110 61 110 60 110 59 110 58 110 57 110 56 110 55 110 54 110 53 110 52 110 51 110 50 110 49 110 48 110 47 110 46 110 45 110 44 110 43 110 42 110 41 110 40 109 40 108 40 107 40 106 40 105 40 104 40 103 40 102 40 101 40 100 40 100 41 100 42"/><polygon class="cls-1" points="132 50 133 50 134 50 135 50 136 50 137 50 138 50 139 50 140 50 140 49 140 48 140 47 140 46 140 45 140 44 140 43 140 42 140 41 140 40 140 39 140 38 140 37 140 36 140 35 140 34 140 33 140 32 140 31 140 30 139 30 138 30 137 30 136 30 135 30 134 30 133 30 132 30 131 30 130 30 130 31 130 32 130 33 130 34 130 35 130 36 130 37 130 38 130 39 130 40 130 41 130 42 130 43 130 44 130 45 130 46 130 47 130 48 130 49 130 50 131 50 132 50"/><polygon class="cls-2" points="150 58 150 57 150 56 150 55 150 54 150 53 150 52 150 51 150 50 150 49 150 48 150 47 150 46 150 45 150 44 150 43 150 42 150 41 150 40 151 40 152 40 153 40 154 40 155 40 156 40 157 40 158 40 159 40 160 40 160 39 160 38 160 37 160 36 160 35 160 34 160 33 160 32 160 31 160 30 159 30 158 30 157 30 156 30 155 30 154 30 153 30 152 30 151 30 150 30 149 30 148 30 147 30 146 30 145 30 144 30 143 30 142 30 141 30 140 30 140 31 140 32 140 33 140 34 140 35 140 36 140 37 140 38 140 39 140 40 140 41 140 42 140 43 140 44 140 45 140 46 140 47 140 48 140 49 140 50 139 50 138 50 137 50 136 50 135 50 134 50 133 50 132 50 131 50 130 50 130 51 130 52 130 53 130 54 130 55 130 56 130 57 130 58 130 59 130 60 131 60 132 60 133 60 134 60 135 60 136 60 137 60 138 60 139 60 140 60 141 60 142 60 143 60 144 60 145 60 146 60 147 60 148 60 149 60 150 60 150 59 150 58"/><polygon class="cls-1" points="148 60 147 60 146 60 145 60 144 60 143 60 142 60 141 60 140 60 140 61 140 62 140 63 140 64 140 65 140 66 140 67 140 68 140 69 140 70 140 71 140 72 140 73 140 74 140 75 140 76 140 77 140 78 140 79 140 80 141 80 142 80 143 80 144 80 145 80 146 80 147 80 148 80 149 80 150 80 150 79 150 78 150 77 150 76 150 75 150 74 150 73 150 72 150 71 150 70 150 69 150 68 150 67 150 66 150 65 150 64 150 63 150 62 150 61 150 60 149 60 148 60"/><polygon class="cls-4" points="70 67 70 66 70 65 70 64 70 63 70 62 70 61 70 60 70 59 70 58 70 57 70 56 70 55 70 54 70 53 70 52 70 51 70 50 69 50 68 50 67 50 66 50 65 50 64 50 63 50 62 50 61 50 60 50 60 51 60 52 60 53 60 54 60 55 60 56 60 57 60 58 60 59 60 60 60 61 60 62 60 63 60 64 60 65 60 66 60 67 60 68 60 69 60 70 61 70 62 70 63 70 64 70 65 70 66 70 67 70 68 70 69 70 70 70 70 69 70 68 70 67"/><polygon class="cls-4" points="32 70 33 70 34 70 35 70 36 70 37 70 38 70 39 70 40 70 40 69 40 68 40 67 40 66 40 65 40 64 40 63 40 62 40 61 40 60 40 59 40 58 40 57 40 56 40 55 40 54 40 53 40 52 40 51 40 50 39 50 38 50 37 50 36 50 35 50 34 50 33 50 32 50 31 50 30 50 30 51 30 52 30 53 30 54 30 55 30 56 30 57 30 58 30 59 30 60 30 61 30 62 30 63 30 64 30 65 30 66 30 67 30 68 30 69 30 70 31 70 32 70"/><polygon class="cls-1" points="98 70 97 70 96 70 95 70 94 70 93 70 92 70 91 70 90 70 90 71 90 72 90 73 90 74 90 75 90 76 90 77 90 78 90 79 90 80 89 80 88 80 87 80 86 80 85 80 84 80 83 80 82 80 81 80 80 80 80 81 80 82 80 83 80 84 80 85 80 86 80 87 80 88 80 89 80 90 81 90 82 90 83 90 84 90 85 90 86 90 87 90 88 90 89 90 90 90 91 90 92 90 93 90 94 90 95 90 96 90 97 90 98 90 99 90 100 90 100 89 100 88 100 87 100 86 100 85 100 84 100 83 100 82 100 81 100 80 100 79 100 78 100 77 100 76 100 75 100 74 100 73 100 72 100 71 100 70 99 70 98 70"/><polygon class="cls-1" points="10 78 10 77 10 76 10 75 10 74 10 73 10 72 10 71 10 70 10 69 10 68 10 67 10 66 10 65 10 64 10 63 10 62 10 61 10 60 10 59 10 58 10 57 10 56 10 55 10 54 10 53 10 52 10 51 10 50 10 49 10 48 10 47 10 46 10 45 10 44 10 43 10 42 10 41 10 40 9 40 8 40 7 40 6 40 5 40 4 40 3 40 2 40 1 40 0 40 0 41 0 42 0 43 0 44 0 45 0 46 0 47 0 48 0 49 0 50 0 51 0 52 0 53 0 54 0 55 0 56 0 57 0 58 0 59 0 60 0 61 0 62 0 63 0 64 0 65 0 66 0 67 0 68 0 69 0 70 0 71 0 72 0 73 0 74 0 75 0 76 0 77 0 78 0 79 0 80 1 80 2 80 3 80 4 80 5 80 6 80 7 80 8 80 9 80 10 80 10 79 10 78"/><polygon class="cls-1" points="130 78 130 77 130 76 130 75 130 74 130 73 130 72 130 71 130 70 130 69 130 68 130 67 130 66 130 65 130 64 130 63 130 62 130 61 130 60 130 59 130 58 130 57 130 56 130 55 130 54 130 53 130 52 130 51 130 50 129 50 128 50 127 50 126 50 125 50 124 50 123 50 122 50 121 50 120 50 120 51 120 52 120 53 120 54 120 55 120 56 120 57 120 58 120 59 120 60 120 61 120 62 120 63 120 64 120 65 120 66 120 67 120 68 120 69 120 70 120 71 120 72 120 73 120 74 120 75 120 76 120 77 120 78 120 79 120 80 121 80 122 80 123 80 124 80 125 80 126 80 127 80 128 80 129 80 130 80 130 79 130 78"/><polygon class="cls-3" points="12 80 13 80 14 80 15 80 16 80 17 80 18 80 19 80 20 80 20 79 20 78 20 77 20 76 20 75 20 74 20 73 20 72 20 71 20 70 20 69 20 68 20 67 20 66 20 65 20 64 20 63 20 62 20 61 20 60 20 59 20 58 20 57 20 56 20 55 20 54 20 53 20 52 20 51 20 50 20 49 20 48 20 47 20 46 20 45 20 44 20 43 20 42 20 41 20 40 19 40 18 40 17 40 16 40 15 40 14 40 13 40 12 40 11 40 10 40 10 41 10 42 10 43 10 44 10 45 10 46 10 47 10 48 10 49 10 50 10 51 10 52 10 53 10 54 10 55 10 56 10 57 10 58 10 59 10 60 10 61 10 62 10 63 10 64 10 65 10 66 10 67 10 68 10 69 10 70 10 71 10 72 10 73 10 74 10 75 10 76 10 77 10 78 10 79 10 80 11 80 12 80"/><polygon class="cls-3" points="132 80 133 80 134 80 135 80 136 80 137 80 138 80 139 80 140 80 140 79 140 78 140 77 140 76 140 75 140 74 140 73 140 72 140 71 140 70 140 69 140 68 140 67 140 66 140 65 140 64 140 63 140 62 140 61 140 60 139 60 138 60 137 60 136 60 135 60 134 60 133 60 132 60 131 60 130 60 130 61 130 62 130 63 130 64 130 65 130 66 130 67 130 68 130 69 130 70 130 71 130 72 130 73 130 74 130 75 130 76 130 77 130 78 130 79 130 80 131 80 132 80"/><polygon class="cls-2" points="148 80 147 80 146 80 145 80 144 80 143 80 142 80 141 80 140 80 140 81 140 82 140 83 140 84 140 85 140 86 140 87 140 88 140 89 140 90 140 91 140 92 140 93 140 94 140 95 140 96 140 97 140 98 140 99 140 100 140 101 140 102 140 103 140 104 140 105 140 106 140 107 140 108 140 109 140 110 141 110 142 110 143 110 144 110 145 110 146 110 147 110 148 110 149 110 150 110 150 109 150 108 150 107 150 106 150 105 150 104 150 103 150 102 150 101 150 100 150 99 150 98 150 97 150 96 150 95 150 94 150 93 150 92 150 91 150 90 150 89 150 88 150 87 150 86 150 85 150 84 150 83 150 82 150 81 150 80 149 80 148 80"/><polygon class="cls-1" points="150 82 150 83 150 84 150 85 150 86 150 87 150 88 150 89 150 90 150 91 150 92 150 93 150 94 150 95 150 96 150 97 150 98 150 99 150 100 150 101 150 102 150 103 150 104 150 105 150 106 150 107 150 108 150 109 150 110 150 111 150 112 150 113 150 114 150 115 150 116 150 117 150 118 150 119 150 120 151 120 152 120 153 120 154 120 155 120 156 120 157 120 158 120 159 120 160 120 160 119 160 118 160 117 160 116 160 115 160 114 160 113 160 112 160 111 160 110 160 109 160 108 160 107 160 106 160 105 160 104 160 103 160 102 160 101 160 100 160 99 160 98 160 97 160 96 160 95 160 94 160 93 160 92 160 91 160 90 160 89 160 88 160 87 160 86 160 85 160 84 160 83 160 82 160 81 160 80 159 80 158 80 157 80 156 80 155 80 154 80 153 80 152 80 151 80 150 80 150 81 150 82"/><polygon class="cls-1" points="20 88 20 87 20 86 20 85 20 84 20 83 20 82 20 81 20 80 19 80 18 80 17 80 16 80 15 80 14 80 13 80 12 80 11 80 10 80 10 81 10 82 10 83 10 84 10 85 10 86 10 87 10 88 10 89 10 90 11 90 12 90 13 90 14 90 15 90 16 90 17 90 18 90 19 90 20 90 20 89 20 88"/><polygon class="cls-3" points="22 90 23 90 24 90 25 90 26 90 27 90 28 90 29 90 30 90 30 89 30 88 30 87 30 86 30 85 30 84 30 83 30 82 30 81 30 80 29 80 28 80 27 80 26 80 25 80 24 80 23 80 22 80 21 80 20 80 20 81 20 82 20 83 20 84 20 85 20 86 20 87 20 88 20 89 20 90 21 90 22 90"/><polygon class="cls-5" points="98 90 97 90 96 90 95 90 94 90 93 90 92 90 91 90 90 90 90 91 90 92 90 93 90 94 90 95 90 96 90 97 90 98 90 99 90 100 91 100 92 100 93 100 94 100 95 100 96 100 97 100 98 100 99 100 100 100 100 99 100 98 100 97 100 96 100 95 100 94 100 93 100 92 100 91 100 90 99 90 98 90"/><polygon class="cls-1" points="100 92 100 93 100 94 100 95 100 96 100 97 100 98 100 99 100 100 101 100 102 100 103 100 104 100 105 100 106 100 107 100 108 100 109 100 110 100 110 99 110 98 110 97 110 96 110 95 110 94 110 93 110 92 110 91 110 90 109 90 108 90 107 90 106 90 105 90 104 90 103 90 102 90 101 90 100 90 100 91 100 92"/><polygon class="cls-5" points="108 100 107 100 106 100 105 100 104 100 103 100 102 100 101 100 100 100 100 101 100 102 100 103 100 104 100 105 100 106 100 107 100 108 100 109 100 110 101 110 102 110 103 110 104 110 105 110 106 110 107 110 108 110 109 110 110 110 110 109 110 108 110 107 110 106 110 105 110 104 110 103 110 102 110 101 110 100 109 100 108 100"/><polygon class="cls-1" points="110 102 110 103 110 104 110 105 110 106 110 107 110 108 110 109 110 110 111 110 112 110 113 110 114 110 115 110 116 110 117 110 118 110 119 110 120 110 120 109 120 108 120 107 120 106 120 105 120 104 120 103 120 102 120 101 120 100 119 100 118 100 117 100 116 100 115 100 114 100 113 100 112 100 111 100 110 100 110 101 110 102"/><polygon class="cls-3" points="40 108 40 107 40 106 40 105 40 104 40 103 40 102 40 101 40 100 40 99 40 98 40 97 40 96 40 95 40 94 40 93 40 92 40 91 40 90 39 90 38 90 37 90 36 90 35 90 34 90 33 90 32 90 31 90 30 90 30 91 30 92 30 93 30 94 30 95 30 96 30 97 30 98 30 99 30 100 30 101 30 102 30 103 30 104 30 105 30 106 30 107 30 108 30 109 30 110 30 111 30 112 30 113 30 114 30 115 30 116 30 117 30 118 30 119 30 120 30 121 30 122 30 123 30 124 30 125 30 126 30 127 30 128 30 129 30 130 31 130 32 130 33 130 34 130 35 130 36 130 37 130 38 130 39 130 40 130 40 129 40 128 40 127 40 126 40 125 40 124 40 123 40 122 40 121 40 120 40 119 40 118 40 117 40 116 40 115 40 114 40 113 40 112 40 111 40 110 40 109 40 108"/><polygon class="cls-1" points="132 110 133 110 134 110 135 110 136 110 137 110 138 110 139 110 140 110 140 109 140 108 140 107 140 106 140 105 140 104 140 103 140 102 140 101 140 100 140 99 140 98 140 97 140 96 140 95 140 94 140 93 140 92 140 91 140 90 140 89 140 88 140 87 140 86 140 85 140 84 140 83 140 82 140 81 140 80 139 80 138 80 137 80 136 80 135 80 134 80 133 80 132 80 131 80 130 80 130 81 130 82 130 83 130 84 130 85 130 86 130 87 130 88 130 89 130 90 130 91 130 92 130 93 130 94 130 95 130 96 130 97 130 98 130 99 130 100 130 101 130 102 130 103 130 104 130 105 130 106 130 107 130 108 130 109 130 110 131 110 132 110"/><polygon class="cls-5" points="118 110 117 110 116 110 115 110 114 110 113 110 112 110 111 110 110 110 110 111 110 112 110 113 110 114 110 115 110 116 110 117 110 118 110 119 110 120 111 120 112 120 113 120 114 120 115 120 116 120 117 120 118 120 119 120 120 120 120 119 120 118 120 117 120 116 120 115 120 114 120 113 120 112 120 111 120 110 119 110 118 110"/><polygon class="cls-1" points="120 112 120 113 120 114 120 115 120 116 120 117 120 118 120 119 120 120 121 120 122 120 123 120 124 120 125 120 126 120 127 120 128 120 129 120 130 120 130 119 130 118 130 117 130 116 130 115 130 114 130 113 130 112 130 111 130 110 129 110 128 110 127 110 126 110 125 110 124 110 123 110 122 110 121 110 120 110 120 111 120 112"/><polygon class="cls-5" points="130 112 130 113 130 114 130 115 130 116 130 117 130 118 130 119 130 120 131 120 132 120 133 120 134 120 135 120 136 120 137 120 138 120 139 120 140 120 140 119 140 118 140 117 140 116 140 115 140 114 140 113 140 112 140 111 140 110 139 110 138 110 137 110 136 110 135 110 134 110 133 110 132 110 131 110 130 110 130 111 130 112"/><polygon class="cls-3" points="110 118 110 117 110 116 110 115 110 114 110 113 110 112 110 111 110 110 109 110 108 110 107 110 106 110 105 110 104 110 103 110 102 110 101 110 100 110 100 111 100 112 100 113 100 114 100 115 100 116 100 117 100 118 100 119 100 120 101 120 102 120 103 120 104 120 105 120 106 120 107 120 108 120 109 120 110 120 110 119 110 118"/><polygon class="cls-3" points="150 118 150 117 150 116 150 115 150 114 150 113 150 112 150 111 150 110 149 110 148 110 147 110 146 110 145 110 144 110 143 110 142 110 141 110 140 110 140 111 140 112 140 113 140 114 140 115 140 116 140 117 140 118 140 119 140 120 141 120 142 120 143 120 144 120 145 120 146 120 147 120 148 120 149 120 150 120 150 119 150 118"/><polygon class="cls-1" points="72 120 73 120 74 120 75 120 76 120 77 120 78 120 79 120 80 120 81 120 82 120 83 120 84 120 85 120 86 120 87 120 88 120 89 120 90 120 90 119 90 118 90 117 90 116 90 115 90 114 90 113 90 112 90 111 90 110 89 110 88 110 87 110 86 110 85 110 84 110 83 110 82 110 81 110 80 110 79 110 78 110 77 110 76 110 75 110 74 110 73 110 72 110 71 110 70 110 70 111 70 112 70 113 70 114 70 115 70 116 70 117 70 118 70 119 70 120 71 120 72 120"/><polygon class="cls-1" points="148 120 147 120 146 120 145 120 144 120 143 120 142 120 141 120 140 120 140 121 140 122 140 123 140 124 140 125 140 126 140 127 140 128 140 129 140 130 140 131 140 132 140 133 140 134 140 135 140 136 140 137 140 138 140 139 140 140 141 140 142 140 143 140 144 140 145 140 146 140 147 140 148 140 149 140 150 140 150 139 150 138 150 137 150 136 150 135 150 134 150 133 150 132 150 131 150 130 150 129 150 128 150 127 150 126 150 125 150 124 150 123 150 122 150 121 150 120 149 120 148 120"/><polygon class="cls-2" points="38 130 37 130 36 130 35 130 34 130 33 130 32 130 31 130 30 130 30 131 30 132 30 133 30 134 30 135 30 136 30 137 30 138 30 139 30 140 31 140 32 140 33 140 34 140 35 140 36 140 37 140 38 140 39 140 40 140 40 139 40 138 40 137 40 136 40 135 40 134 40 133 40 132 40 131 40 130 39 130 38 130"/><polygon class="cls-3" points="140 138 140 137 140 136 140 135 140 134 140 133 140 132 140 131 140 130 140 129 140 128 140 127 140 126 140 125 140 124 140 123 140 122 140 121 140 120 139 120 138 120 137 120 136 120 135 120 134 120 133 120 132 120 131 120 130 120 129 120 128 120 127 120 126 120 125 120 124 120 123 120 122 120 121 120 120 120 120 121 120 122 120 123 120 124 120 125 120 126 120 127 120 128 120 129 120 130 120 131 120 132 120 133 120 134 120 135 120 136 120 137 120 138 120 139 120 140 121 140 122 140 123 140 124 140 125 140 126 140 127 140 128 140 129 140 130 140 131 140 132 140 133 140 134 140 135 140 136 140 137 140 138 140 139 140 140 140 140 139 140 138"/><polygon class="cls-1" points="138 140 137 140 136 140 135 140 134 140 133 140 132 140 131 140 130 140 129 140 128 140 127 140 126 140 125 140 124 140 123 140 122 140 121 140 120 140 119 140 118 140 117 140 116 140 115 140 114 140 113 140 112 140 111 140 110 140 109 140 108 140 107 140 106 140 105 140 104 140 103 140 102 140 101 140 100 140 99 140 98 140 97 140 96 140 95 140 94 140 93 140 92 140 91 140 90 140 89 140 88 140 87 140 86 140 85 140 84 140 83 140 82 140 81 140 80 140 79 140 78 140 77 140 76 140 75 140 74 140 73 140 72 140 71 140 70 140 70 139 70 138 70 137 70 136 70 135 70 134 70 133 70 132 70 131 70 130 70 129 70 128 70 127 70 126 70 125 70 124 70 123 70 122 70 121 70 120 69 120 68 120 67 120 66 120 65 120 64 120 63 120 62 120 61 120 60 120 60 121 60 122 60 123 60 124 60 125 60 126 60 127 60 128 60 129 60 130 60 131 60 132 60 133 60 134 60 135 60 136 60 137 60 138 60 139 60 140 59 140 58 140 57 140 56 140 55 140 54 140 53 140 52 140 51 140 50 140 50 139 50 138 50 137 50 136 50 135 50 134 50 133 50 132 50 131 50 130 50 129 50 128 50 127 50 126 50 125 50 124 50 123 50 122 50 121 50 120 50 119 50 118 50 117 50 116 50 115 50 114 50 113 50 112 50 111 50 110 49 110 48 110 47 110 46 110 45 110 44 110 43 110 42 110 41 110 40 110 40 111 40 112 40 113 40 114 40 115 40 116 40 117 40 118 40 119 40 120 40 121 40 122 40 123 40 124 40 125 40 126 40 127 40 128 40 129 40 130 40 131 40 132 40 133 40 134 40 135 40 136 40 137 40 138 40 139 40 140 39 140 38 140 37 140 36 140 35 140 34 140 33 140 32 140 31 140 30 140 30 139 30 138 30 137 30 136 30 135 30 134 30 133 30 132 30 131 30 130 30 129 30 128 30 127 30 126 30 125 30 124 30 123 30 122 30 121 30 120 30 119 30 118 30 117 30 116 30 115 30 114 30 113 30 112 30 111 30 110 30 109 30 108 30 107 30 106 30 105 30 104 30 103 30 102 30 101 30 100 30 99 30 98 30 97 30 96 30 95 30 94 30 93 30 92 30 91 30 90 29 90 28 90 27 90 26 90 25 90 24 90 23 90 22 90 21 90 20 90 20 91 20 92 20 93 20 94 20 95 20 96 20 97 20 98 20 99 20 100 20 101 20 102 20 103 20 104 20 105 20 106 20 107 20 108 20 109 20 110 20 111 20 112 20 113 20 114 20 115 20 116 20 117 20 118 20 119 20 120 20 121 20 122 20 123 20 124 20 125 20 126 20 127 20 128 20 129 20 130 20 131 20 132 20 133 20 134 20 135 20 136 20 137 20 138 20 139 20 140 20 141 20 142 20 143 20 144 20 145 20 146 20 147 20 148 20 149 20 150 21 150 22 150 23 150 24 150 25 150 26 150 27 150 28 150 29 150 30 150 31 150 32 150 33 150 34 150 35 150 36 150 37 150 38 150 39 150 40 150 41 150 42 150 43 150 44 150 45 150 46 150 47 150 48 150 49 150 50 150 51 150 52 150 53 150 54 150 55 150 56 150 57 150 58 150 59 150 60 150 61 150 62 150 63 150 64 150 65 150 66 150 67 150 68 150 69 150 70 150 71 150 72 150 73 150 74 150 75 150 76 150 77 150 78 150 79 150 80 150 81 150 82 150 83 150 84 150 85 150 86 150 87 150 88 150 89 150 90 150 91 150 92 150 93 150 94 150 95 150 96 150 97 150 98 150 99 150 100 150 101 150 102 150 103 150 104 150 105 150 106 150 107 150 108 150 109 150 110 150 111 150 112 150 113 150 114 150 115 150 116 150 117 150 118 150 119 150 120 150 121 150 122 150 123 150 124 150 125 150 126 150 127 150 128 150 129 150 130 150 131 150 132 150 133 150 134 150 135 150 136 150 137 150 138 150 139 150 140 150 140 149 140 148 140 147 140 146 140 145 140 144 140 143 140 142 140 141 140 140 139 140 138 140"/></svg>